G04 #@! TF.GenerationSoftware,KiCad,Pcbnew,(6.0.0-0)*
G04 #@! TF.CreationDate,2023-05-21T13:36:32-07:00*
G04 #@! TF.ProjectId,ItsyBitsy breadboard,49747379-4269-4747-9379-206272656164,0.0.0*
G04 #@! TF.SameCoordinates,Original*
G04 #@! TF.FileFunction,Copper,L2,Bot*
G04 #@! TF.FilePolarity,Positive*
%FSLAX46Y46*%
G04 Gerber Fmt 4.6, Leading zero omitted, Abs format (unit mm)*
G04 Created by KiCad (PCBNEW (6.0.0-0)) date 2023-05-21 13:36:32*
%MOMM*%
%LPD*%
G01*
G04 APERTURE LIST*
G04 Aperture macros list*
%AMRoundRect*
0 Rectangle with rounded corners*
0 $1 Rounding radius*
0 $2 $3 $4 $5 $6 $7 $8 $9 X,Y pos of 4 corners*
0 Add a 4 corners polygon primitive as box body*
4,1,4,$2,$3,$4,$5,$6,$7,$8,$9,$2,$3,0*
0 Add four circle primitives for the rounded corners*
1,1,$1+$1,$2,$3*
1,1,$1+$1,$4,$5*
1,1,$1+$1,$6,$7*
1,1,$1+$1,$8,$9*
0 Add four rect primitives between the rounded corners*
20,1,$1+$1,$2,$3,$4,$5,0*
20,1,$1+$1,$4,$5,$6,$7,0*
20,1,$1+$1,$6,$7,$8,$9,0*
20,1,$1+$1,$8,$9,$2,$3,0*%
G04 Aperture macros list end*
G04 #@! TA.AperFunction,ComponentPad*
%ADD10R,1.700000X1.700000*%
G04 #@! TD*
G04 #@! TA.AperFunction,ComponentPad*
%ADD11O,1.700000X1.700000*%
G04 #@! TD*
G04 #@! TA.AperFunction,ComponentPad*
%ADD12C,1.700000*%
G04 #@! TD*
G04 #@! TA.AperFunction,ComponentPad*
%ADD13C,1.676400*%
G04 #@! TD*
G04 #@! TA.AperFunction,SMDPad,CuDef*
%ADD14RoundRect,0.250000X-1.500000X0.250000X-1.500000X-0.250000X1.500000X-0.250000X1.500000X0.250000X0*%
G04 #@! TD*
G04 #@! TA.AperFunction,SMDPad,CuDef*
%ADD15RoundRect,0.250001X-1.449999X0.499999X-1.449999X-0.499999X1.449999X-0.499999X1.449999X0.499999X0*%
G04 #@! TD*
G04 #@! TA.AperFunction,SMDPad,CuDef*
%ADD16RoundRect,0.250000X0.475000X-0.250000X0.475000X0.250000X-0.475000X0.250000X-0.475000X-0.250000X0*%
G04 #@! TD*
G04 #@! TA.AperFunction,SMDPad,CuDef*
%ADD17RoundRect,0.243750X-0.456250X0.243750X-0.456250X-0.243750X0.456250X-0.243750X0.456250X0.243750X0*%
G04 #@! TD*
G04 #@! TA.AperFunction,SMDPad,CuDef*
%ADD18RoundRect,0.250000X-0.450000X0.262500X-0.450000X-0.262500X0.450000X-0.262500X0.450000X0.262500X0*%
G04 #@! TD*
G04 #@! TA.AperFunction,SMDPad,CuDef*
%ADD19RoundRect,0.250000X-0.262500X-0.450000X0.262500X-0.450000X0.262500X0.450000X-0.262500X0.450000X0*%
G04 #@! TD*
G04 #@! TA.AperFunction,SMDPad,CuDef*
%ADD20RoundRect,0.150000X0.512500X0.150000X-0.512500X0.150000X-0.512500X-0.150000X0.512500X-0.150000X0*%
G04 #@! TD*
G04 #@! TA.AperFunction,ViaPad*
%ADD21C,0.685800*%
G04 #@! TD*
G04 #@! TA.AperFunction,Conductor*
%ADD22C,0.152400*%
G04 #@! TD*
G04 #@! TA.AperFunction,Conductor*
%ADD23C,0.254000*%
G04 #@! TD*
G04 APERTURE END LIST*
D10*
X111775000Y-118110000D03*
D11*
X114315000Y-118110000D03*
X116855000Y-118110000D03*
D12*
X111755000Y-97790000D03*
X114295000Y-97790000D03*
D11*
X116835000Y-97790000D03*
D13*
X111696500Y-115570000D03*
X114236500Y-115570000D03*
X116776500Y-115570000D03*
X116776500Y-100330000D03*
X114236500Y-100330000D03*
X111696500Y-100330000D03*
D14*
X122650000Y-106655000D03*
X122650000Y-108655000D03*
D15*
X128400000Y-104305000D03*
X128400000Y-111005000D03*
D16*
X118868000Y-110805000D03*
X118868000Y-108905000D03*
D17*
X112068000Y-106717500D03*
X112068000Y-108592500D03*
D18*
X118868000Y-105342500D03*
X118868000Y-107167500D03*
D19*
X115161500Y-105481000D03*
X116986500Y-105481000D03*
D20*
X116703500Y-107579000D03*
X116703500Y-108529000D03*
X116703500Y-109479000D03*
X114428500Y-109479000D03*
X114428500Y-107579000D03*
D21*
X128270000Y-102235000D03*
X128270000Y-113665000D03*
X125700000Y-106600000D03*
X118900000Y-112200000D03*
D22*
X122705000Y-106600000D02*
X122650000Y-106655000D01*
X118900000Y-112200000D02*
X118900000Y-110837000D01*
X118900000Y-110837000D02*
X118868000Y-110805000D01*
D23*
X118868000Y-110805000D02*
X117205000Y-110805000D01*
X117205000Y-110805000D02*
X116703500Y-110303500D01*
D22*
X125700000Y-106600000D02*
X122705000Y-106600000D01*
D23*
X116703500Y-110303500D02*
X116703500Y-109479000D01*
D22*
X112600000Y-103900000D02*
X112068000Y-104432000D01*
X118868000Y-105342500D02*
X118700000Y-105174500D01*
X112068000Y-104432000D02*
X112068000Y-106717500D01*
X118700000Y-105174500D02*
X118700000Y-104300000D01*
X118700000Y-104300000D02*
X118300000Y-103900000D01*
X118300000Y-103900000D02*
X112600000Y-103900000D01*
X118456500Y-107579000D02*
X118868000Y-107167500D01*
X116703500Y-107579000D02*
X118456500Y-107579000D01*
X114428500Y-106214000D02*
X115161500Y-105481000D01*
X114428500Y-107579000D02*
X114428500Y-106214000D01*
D23*
X111125000Y-102870000D02*
X115570000Y-102870000D01*
X110490000Y-107950000D02*
X110490000Y-103505000D01*
X110490000Y-103505000D02*
X111125000Y-102870000D01*
X115570000Y-102870000D02*
X116776500Y-101663500D01*
X116776500Y-101663500D02*
X116776500Y-100330000D01*
X112060500Y-108585000D02*
X111125000Y-108585000D01*
X114428500Y-109479000D02*
X112954500Y-109479000D01*
X112954500Y-109479000D02*
X112068000Y-108592500D01*
X111125000Y-108585000D02*
X110490000Y-107950000D01*
X112068000Y-108592500D02*
X112060500Y-108585000D01*
D22*
X111760000Y-115570000D02*
X111760000Y-118110000D01*
D23*
X114300000Y-115570000D02*
X114300000Y-118110000D01*
D22*
X116840000Y-115570000D02*
X116840000Y-116772081D01*
X116840000Y-116772081D02*
X116840000Y-118110000D01*
G04 #@! TA.AperFunction,Conductor*
G36*
X110924999Y-96755258D02*
G01*
X110993097Y-96775336D01*
X111039530Y-96829044D01*
X111049555Y-96899329D01*
X111019990Y-96963877D01*
X111007936Y-96975990D01*
X110950392Y-97026455D01*
X110946817Y-97030990D01*
X110946816Y-97030991D01*
X110917722Y-97067897D01*
X110824720Y-97185869D01*
X110822031Y-97190980D01*
X110822029Y-97190983D01*
X110809073Y-97215609D01*
X110730203Y-97365515D01*
X110670007Y-97559378D01*
X110646148Y-97760964D01*
X110659424Y-97963522D01*
X110660845Y-97969118D01*
X110660846Y-97969123D01*
X110681119Y-98048945D01*
X110709392Y-98160269D01*
X110711809Y-98165512D01*
X110749010Y-98246208D01*
X110794377Y-98344616D01*
X110797710Y-98349332D01*
X110895131Y-98487180D01*
X110911533Y-98510389D01*
X111056938Y-98652035D01*
X111225720Y-98764812D01*
X111231023Y-98767090D01*
X111231026Y-98767092D01*
X111406921Y-98842662D01*
X111412228Y-98844942D01*
X111485244Y-98861464D01*
X111604579Y-98888467D01*
X111604584Y-98888468D01*
X111610216Y-98889742D01*
X111615987Y-98889969D01*
X111615989Y-98889969D01*
X111675756Y-98892317D01*
X111813053Y-98897712D01*
X111913499Y-98883148D01*
X112008231Y-98869413D01*
X112008236Y-98869412D01*
X112013945Y-98868584D01*
X112019409Y-98866729D01*
X112019414Y-98866728D01*
X112200693Y-98805192D01*
X112200698Y-98805190D01*
X112206165Y-98803334D01*
X112383276Y-98704147D01*
X112438542Y-98658183D01*
X112534913Y-98578031D01*
X112539345Y-98574345D01*
X112596463Y-98505669D01*
X112665453Y-98422718D01*
X112665455Y-98422715D01*
X112669147Y-98418276D01*
X112768334Y-98241165D01*
X112770720Y-98234135D01*
X112771170Y-98233496D01*
X112772541Y-98230416D01*
X112773146Y-98230685D01*
X112811553Y-98176059D01*
X112877305Y-98149278D01*
X112947098Y-98162295D01*
X112998773Y-98210980D01*
X113006777Y-98227229D01*
X113076770Y-98399603D01*
X113081413Y-98408794D01*
X113161460Y-98539420D01*
X113171916Y-98548880D01*
X113180694Y-98545096D01*
X114205905Y-97519885D01*
X114268217Y-97485859D01*
X114339032Y-97490924D01*
X114384095Y-97519885D01*
X115405474Y-98541264D01*
X115417484Y-98547823D01*
X115429223Y-98538855D01*
X115460004Y-98496019D01*
X115465315Y-98487180D01*
X115559670Y-98296267D01*
X115563469Y-98286672D01*
X115580066Y-98232047D01*
X115619007Y-98172683D01*
X115683862Y-98143796D01*
X115754038Y-98154558D01*
X115807256Y-98201551D01*
X115815048Y-98215922D01*
X115874377Y-98344616D01*
X115877710Y-98349332D01*
X115975131Y-98487180D01*
X115991533Y-98510389D01*
X116136938Y-98652035D01*
X116305720Y-98764812D01*
X116311023Y-98767090D01*
X116311026Y-98767092D01*
X116486921Y-98842662D01*
X116492228Y-98844942D01*
X116565244Y-98861464D01*
X116684579Y-98888467D01*
X116684584Y-98888468D01*
X116690216Y-98889742D01*
X116695987Y-98889969D01*
X116695989Y-98889969D01*
X116755756Y-98892317D01*
X116893053Y-98897712D01*
X116993499Y-98883148D01*
X117088231Y-98869413D01*
X117088236Y-98869412D01*
X117093945Y-98868584D01*
X117099409Y-98866729D01*
X117099414Y-98866728D01*
X117280693Y-98805192D01*
X117280698Y-98805190D01*
X117286165Y-98803334D01*
X117463276Y-98704147D01*
X117518542Y-98658183D01*
X117614913Y-98578031D01*
X117619345Y-98574345D01*
X117676463Y-98505669D01*
X117745453Y-98422718D01*
X117745455Y-98422715D01*
X117749147Y-98418276D01*
X117848334Y-98241165D01*
X117850190Y-98235698D01*
X117850192Y-98235693D01*
X117911728Y-98054414D01*
X117911729Y-98054409D01*
X117913584Y-98048945D01*
X117914412Y-98043236D01*
X117914413Y-98043231D01*
X117942179Y-97851727D01*
X117942712Y-97848053D01*
X117944232Y-97790000D01*
X117925658Y-97587859D01*
X117923770Y-97581165D01*
X117872125Y-97398046D01*
X117872124Y-97398044D01*
X117870557Y-97392487D01*
X117859978Y-97371033D01*
X117783331Y-97215609D01*
X117780776Y-97210428D01*
X117659320Y-97047779D01*
X117630420Y-97021064D01*
X117587431Y-96981325D01*
X117550986Y-96920397D01*
X117553267Y-96849437D01*
X117593550Y-96790975D01*
X117659045Y-96763572D01*
X117673099Y-96762801D01*
X118707506Y-96763957D01*
X118731943Y-96766378D01*
X118745000Y-96768975D01*
X118756918Y-96766604D01*
X118772594Y-96767632D01*
X118827163Y-96774816D01*
X118858934Y-96783329D01*
X118872202Y-96788824D01*
X118920174Y-96808695D01*
X118948659Y-96825141D01*
X119001247Y-96865493D01*
X119024506Y-96888752D01*
X119064858Y-96941340D01*
X119081304Y-96969825D01*
X119106670Y-97031063D01*
X119115183Y-97062836D01*
X119122367Y-97117405D01*
X119123395Y-97133081D01*
X119121024Y-97144999D01*
X119123445Y-97157169D01*
X119123579Y-97157843D01*
X119126000Y-97182424D01*
X119126000Y-98387575D01*
X119123579Y-98412153D01*
X119121024Y-98425000D01*
X119122361Y-98431722D01*
X119138863Y-98599274D01*
X119189697Y-98766851D01*
X119192613Y-98772306D01*
X119192614Y-98772309D01*
X119259200Y-98896883D01*
X119272247Y-98921292D01*
X119383341Y-99056659D01*
X119388120Y-99060581D01*
X119477164Y-99133658D01*
X119518708Y-99167753D01*
X119524166Y-99170670D01*
X119524167Y-99170671D01*
X119667691Y-99247386D01*
X119667694Y-99247387D01*
X119673149Y-99250303D01*
X119840726Y-99301137D01*
X120008278Y-99317639D01*
X120015000Y-99318976D01*
X120027847Y-99316421D01*
X120052425Y-99314000D01*
X124422575Y-99314000D01*
X124447153Y-99316421D01*
X124460000Y-99318976D01*
X124466722Y-99317639D01*
X124634274Y-99301137D01*
X124801851Y-99250303D01*
X124807306Y-99247387D01*
X124807309Y-99247386D01*
X124950833Y-99170671D01*
X124950834Y-99170670D01*
X124956292Y-99167753D01*
X125052738Y-99088601D01*
X125118085Y-99060847D01*
X125132672Y-99060000D01*
X129795001Y-99060000D01*
X129863122Y-99080002D01*
X129909615Y-99133658D01*
X129921001Y-99186000D01*
X129921001Y-103174500D01*
X129900999Y-103242621D01*
X129847343Y-103289114D01*
X129795001Y-103300500D01*
X126998681Y-103300501D01*
X126902246Y-103300501D01*
X126898852Y-103300870D01*
X126898846Y-103300870D01*
X126848411Y-103306348D01*
X126848407Y-103306349D01*
X126840553Y-103307202D01*
X126705236Y-103357929D01*
X126698057Y-103363309D01*
X126698054Y-103363311D01*
X126610023Y-103429287D01*
X126589596Y-103444596D01*
X126577737Y-103460420D01*
X126508311Y-103553054D01*
X126508309Y-103553057D01*
X126502929Y-103560236D01*
X126499779Y-103568639D01*
X126468827Y-103651206D01*
X126452202Y-103695553D01*
X126445500Y-103757245D01*
X126445501Y-104852754D01*
X126452202Y-104914447D01*
X126502929Y-105049764D01*
X126508309Y-105056943D01*
X126508311Y-105056946D01*
X126574287Y-105144977D01*
X126589596Y-105165404D01*
X126596776Y-105170785D01*
X126698054Y-105246689D01*
X126698057Y-105246691D01*
X126705236Y-105252071D01*
X126713639Y-105255221D01*
X126833158Y-105300026D01*
X126833159Y-105300026D01*
X126840553Y-105302798D01*
X126848403Y-105303651D01*
X126848404Y-105303651D01*
X126878993Y-105306974D01*
X126902245Y-105309500D01*
X126998653Y-105309500D01*
X129795001Y-105309499D01*
X129863122Y-105329501D01*
X129909615Y-105383157D01*
X129921001Y-105435499D01*
X129921001Y-109874500D01*
X129900999Y-109942621D01*
X129847343Y-109989114D01*
X129795001Y-110000500D01*
X126998681Y-110000501D01*
X126902246Y-110000501D01*
X126898852Y-110000870D01*
X126898846Y-110000870D01*
X126848411Y-110006348D01*
X126848407Y-110006349D01*
X126840553Y-110007202D01*
X126705236Y-110057929D01*
X126698057Y-110063309D01*
X126698054Y-110063311D01*
X126631334Y-110113315D01*
X126589596Y-110144596D01*
X126584215Y-110151776D01*
X126508311Y-110253054D01*
X126508309Y-110253057D01*
X126502929Y-110260236D01*
X126499779Y-110268639D01*
X126466553Y-110357272D01*
X126452202Y-110395553D01*
X126445500Y-110457245D01*
X126445501Y-111552754D01*
X126445870Y-111556148D01*
X126445870Y-111556154D01*
X126448786Y-111582996D01*
X126452202Y-111614447D01*
X126502929Y-111749764D01*
X126508309Y-111756943D01*
X126508311Y-111756946D01*
X126525950Y-111780481D01*
X126589596Y-111865404D01*
X126596776Y-111870785D01*
X126698054Y-111946689D01*
X126698057Y-111946691D01*
X126705236Y-111952071D01*
X126713639Y-111955221D01*
X126833158Y-112000026D01*
X126833159Y-112000026D01*
X126840553Y-112002798D01*
X126848403Y-112003651D01*
X126848404Y-112003651D01*
X126878993Y-112006974D01*
X126902245Y-112009500D01*
X126998653Y-112009500D01*
X129795001Y-112009499D01*
X129863122Y-112029501D01*
X129909615Y-112083157D01*
X129921001Y-112135499D01*
X129921001Y-116714000D01*
X129900999Y-116782121D01*
X129847343Y-116828614D01*
X129795001Y-116840000D01*
X125132672Y-116840000D01*
X125064551Y-116819998D01*
X125052738Y-116811399D01*
X125017063Y-116782121D01*
X124956292Y-116732247D01*
X124922154Y-116714000D01*
X124807309Y-116652614D01*
X124807306Y-116652613D01*
X124801851Y-116649697D01*
X124634274Y-116598863D01*
X124466722Y-116582361D01*
X124460000Y-116581024D01*
X124447153Y-116583579D01*
X124422575Y-116586000D01*
X120052425Y-116586000D01*
X120027847Y-116583579D01*
X120015000Y-116581024D01*
X120008278Y-116582361D01*
X119840726Y-116598863D01*
X119673149Y-116649697D01*
X119667694Y-116652613D01*
X119667691Y-116652614D01*
X119552846Y-116714000D01*
X119518708Y-116732247D01*
X119383341Y-116843341D01*
X119272247Y-116978708D01*
X119269330Y-116984166D01*
X119269329Y-116984167D01*
X119207963Y-117098976D01*
X119189697Y-117133149D01*
X119138863Y-117300726D01*
X119122361Y-117468278D01*
X119121024Y-117475000D01*
X119123445Y-117487170D01*
X119123579Y-117487844D01*
X119126000Y-117512425D01*
X119126000Y-118707575D01*
X119123579Y-118732153D01*
X119121024Y-118745000D01*
X119123395Y-118756918D01*
X119122367Y-118772594D01*
X119115183Y-118827163D01*
X119106670Y-118858936D01*
X119081304Y-118920174D01*
X119064858Y-118948659D01*
X119024506Y-119001247D01*
X119001247Y-119024506D01*
X118948659Y-119064858D01*
X118920174Y-119081304D01*
X118911705Y-119084812D01*
X118858934Y-119106670D01*
X118827163Y-119115183D01*
X118772594Y-119122367D01*
X118756918Y-119123395D01*
X118745000Y-119121024D01*
X118732828Y-119123445D01*
X118732827Y-119123445D01*
X118731731Y-119123663D01*
X118707437Y-119126083D01*
X117771995Y-119128175D01*
X117706848Y-119128321D01*
X117638683Y-119108471D01*
X117592070Y-119054920D01*
X117581809Y-118984668D01*
X117611157Y-118920022D01*
X117625998Y-118905446D01*
X117634909Y-118898035D01*
X117634913Y-118898031D01*
X117639345Y-118894345D01*
X117696463Y-118825669D01*
X117765453Y-118742718D01*
X117765455Y-118742715D01*
X117769147Y-118738276D01*
X117868334Y-118561165D01*
X117870190Y-118555698D01*
X117870192Y-118555693D01*
X117931728Y-118374414D01*
X117931729Y-118374409D01*
X117933584Y-118368945D01*
X117934412Y-118363236D01*
X117934413Y-118363231D01*
X117962179Y-118171727D01*
X117962712Y-118168053D01*
X117964232Y-118110000D01*
X117948992Y-117944146D01*
X117946187Y-117913613D01*
X117946186Y-117913610D01*
X117945658Y-117907859D01*
X117944090Y-117902299D01*
X117892125Y-117718046D01*
X117892124Y-117718044D01*
X117890557Y-117712487D01*
X117882667Y-117696486D01*
X117803331Y-117535609D01*
X117800776Y-117530428D01*
X117787333Y-117512425D01*
X117682777Y-117372409D01*
X117679320Y-117367779D01*
X117530258Y-117229987D01*
X117525375Y-117226906D01*
X117525371Y-117226903D01*
X117363464Y-117124748D01*
X117358581Y-117121667D01*
X117250009Y-117078351D01*
X117194151Y-117034532D01*
X117170700Y-116961322D01*
X117170700Y-116675559D01*
X117190702Y-116607438D01*
X117235134Y-116565625D01*
X117393024Y-116477202D01*
X117398063Y-116474380D01*
X117456193Y-116426035D01*
X117548034Y-116349652D01*
X117552466Y-116345966D01*
X117680880Y-116191563D01*
X117779007Y-116016345D01*
X117843560Y-115826179D01*
X117872377Y-115627432D01*
X117873881Y-115570000D01*
X117855505Y-115370018D01*
X117800993Y-115176734D01*
X117790556Y-115155568D01*
X117714726Y-115001801D01*
X117712171Y-114996620D01*
X117697847Y-114977437D01*
X117595466Y-114840333D01*
X117595465Y-114840332D01*
X117592013Y-114835709D01*
X117444543Y-114699389D01*
X117274701Y-114592226D01*
X117088173Y-114517809D01*
X116959706Y-114492256D01*
X116896875Y-114479758D01*
X116896873Y-114479758D01*
X116891208Y-114478631D01*
X116885433Y-114478555D01*
X116885429Y-114478555D01*
X116785018Y-114477241D01*
X116690400Y-114476002D01*
X116684703Y-114476981D01*
X116684702Y-114476981D01*
X116498174Y-114509032D01*
X116498173Y-114509032D01*
X116492477Y-114510011D01*
X116304065Y-114579520D01*
X116299104Y-114582472D01*
X116299103Y-114582472D01*
X116136444Y-114679244D01*
X116136441Y-114679246D01*
X116131476Y-114682200D01*
X115980488Y-114814613D01*
X115856159Y-114972323D01*
X115853470Y-114977434D01*
X115853468Y-114977437D01*
X115840650Y-115001801D01*
X115762652Y-115150050D01*
X115703099Y-115341842D01*
X115679495Y-115541274D01*
X115692630Y-115741668D01*
X115742063Y-115936313D01*
X115826140Y-116118690D01*
X115829473Y-116123406D01*
X115880777Y-116195999D01*
X115942045Y-116282692D01*
X116085896Y-116422825D01*
X116252875Y-116534397D01*
X116258178Y-116536675D01*
X116258181Y-116536677D01*
X116433038Y-116611801D01*
X116487731Y-116657069D01*
X116509300Y-116727569D01*
X116509300Y-116972369D01*
X116489298Y-117040490D01*
X116435642Y-117086983D01*
X116426912Y-117090581D01*
X116377463Y-117108824D01*
X116203010Y-117212612D01*
X116198670Y-117216418D01*
X116198666Y-117216421D01*
X116095506Y-117306891D01*
X116050392Y-117346455D01*
X115924720Y-117505869D01*
X115922031Y-117510980D01*
X115922029Y-117510983D01*
X115909073Y-117535609D01*
X115830203Y-117685515D01*
X115770007Y-117879378D01*
X115746148Y-118080964D01*
X115759424Y-118283522D01*
X115760845Y-118289118D01*
X115760846Y-118289123D01*
X115781119Y-118368945D01*
X115809392Y-118480269D01*
X115811809Y-118485512D01*
X115849010Y-118566208D01*
X115894377Y-118664616D01*
X115897710Y-118669332D01*
X115988415Y-118797677D01*
X116011533Y-118830389D01*
X116015675Y-118834424D01*
X116099270Y-118915858D01*
X116134108Y-118977719D01*
X116129971Y-119048595D01*
X116088172Y-119105983D01*
X116021982Y-119131663D01*
X116011642Y-119132112D01*
X115160000Y-119134016D01*
X115091835Y-119114166D01*
X115045223Y-119060614D01*
X115034962Y-118990363D01*
X115064310Y-118925717D01*
X115079149Y-118911142D01*
X115094912Y-118898032D01*
X115094913Y-118898031D01*
X115099345Y-118894345D01*
X115156463Y-118825669D01*
X115225453Y-118742718D01*
X115225455Y-118742715D01*
X115229147Y-118738276D01*
X115328334Y-118561165D01*
X115330190Y-118555698D01*
X115330192Y-118555693D01*
X115391728Y-118374414D01*
X115391729Y-118374409D01*
X115393584Y-118368945D01*
X115394412Y-118363236D01*
X115394413Y-118363231D01*
X115422179Y-118171727D01*
X115422712Y-118168053D01*
X115424232Y-118110000D01*
X115408992Y-117944146D01*
X115406187Y-117913613D01*
X115406186Y-117913610D01*
X115405658Y-117907859D01*
X115404090Y-117902299D01*
X115352125Y-117718046D01*
X115352124Y-117718044D01*
X115350557Y-117712487D01*
X115342667Y-117696486D01*
X115263331Y-117535609D01*
X115260776Y-117530428D01*
X115247333Y-117512425D01*
X115142777Y-117372409D01*
X115139320Y-117367779D01*
X114990258Y-117229987D01*
X114985375Y-117226906D01*
X114985371Y-117226903D01*
X114823464Y-117124748D01*
X114818581Y-117121667D01*
X114760809Y-117098618D01*
X114704951Y-117054799D01*
X114681500Y-116981589D01*
X114681500Y-116647109D01*
X114701502Y-116578988D01*
X114745930Y-116537177D01*
X114858063Y-116474380D01*
X114916193Y-116426035D01*
X115008034Y-116349652D01*
X115012466Y-116345966D01*
X115140880Y-116191563D01*
X115239007Y-116016345D01*
X115303560Y-115826179D01*
X115332377Y-115627432D01*
X115333881Y-115570000D01*
X115315505Y-115370018D01*
X115260993Y-115176734D01*
X115250556Y-115155568D01*
X115174726Y-115001801D01*
X115172171Y-114996620D01*
X115157847Y-114977437D01*
X115055466Y-114840333D01*
X115055465Y-114840332D01*
X115052013Y-114835709D01*
X114904543Y-114699389D01*
X114734701Y-114592226D01*
X114548173Y-114517809D01*
X114419706Y-114492256D01*
X114356875Y-114479758D01*
X114356873Y-114479758D01*
X114351208Y-114478631D01*
X114345433Y-114478555D01*
X114345429Y-114478555D01*
X114245018Y-114477241D01*
X114150400Y-114476002D01*
X114144703Y-114476981D01*
X114144702Y-114476981D01*
X113958174Y-114509032D01*
X113958173Y-114509032D01*
X113952477Y-114510011D01*
X113764065Y-114579520D01*
X113759104Y-114582472D01*
X113759103Y-114582472D01*
X113596444Y-114679244D01*
X113596441Y-114679246D01*
X113591476Y-114682200D01*
X113440488Y-114814613D01*
X113316159Y-114972323D01*
X113313470Y-114977434D01*
X113313468Y-114977437D01*
X113300650Y-115001801D01*
X113222652Y-115150050D01*
X113163099Y-115341842D01*
X113139495Y-115541274D01*
X113152630Y-115741668D01*
X113202063Y-115936313D01*
X113286140Y-116118690D01*
X113289473Y-116123406D01*
X113340777Y-116195999D01*
X113402045Y-116282692D01*
X113545896Y-116422825D01*
X113712875Y-116534397D01*
X113718174Y-116536674D01*
X113718184Y-116536679D01*
X113842237Y-116589975D01*
X113896930Y-116635243D01*
X113918500Y-116705743D01*
X113918500Y-116991257D01*
X113898498Y-117059378D01*
X113846745Y-117104983D01*
X113842888Y-117106823D01*
X113837463Y-117108824D01*
X113832496Y-117111779D01*
X113832492Y-117111781D01*
X113776582Y-117145044D01*
X113663010Y-117212612D01*
X113658670Y-117216418D01*
X113658666Y-117216421D01*
X113555506Y-117306891D01*
X113510392Y-117346455D01*
X113384720Y-117505869D01*
X113382031Y-117510980D01*
X113382029Y-117510983D01*
X113369073Y-117535609D01*
X113290203Y-117685515D01*
X113230007Y-117879378D01*
X113206148Y-118080964D01*
X113219424Y-118283522D01*
X113220845Y-118289118D01*
X113220846Y-118289123D01*
X113241119Y-118368945D01*
X113269392Y-118480269D01*
X113271809Y-118485512D01*
X113309010Y-118566208D01*
X113354377Y-118664616D01*
X113357710Y-118669332D01*
X113448415Y-118797677D01*
X113471533Y-118830389D01*
X113565088Y-118921525D01*
X113599924Y-118983384D01*
X113595787Y-119054260D01*
X113553989Y-119111648D01*
X113487799Y-119137327D01*
X113477447Y-119137777D01*
X113198138Y-119138402D01*
X113002726Y-119138839D01*
X112934561Y-119118989D01*
X112887948Y-119065438D01*
X112879958Y-118997522D01*
X112877686Y-118997298D01*
X112878293Y-118991135D01*
X112879500Y-118985067D01*
X112879499Y-117234934D01*
X112864734Y-117160699D01*
X112846326Y-117133149D01*
X112815377Y-117086832D01*
X112808484Y-117076516D01*
X112724301Y-117020266D01*
X112650067Y-117005500D01*
X112216700Y-117005500D01*
X112148579Y-116985498D01*
X112102086Y-116931842D01*
X112090700Y-116879500D01*
X112090700Y-116675559D01*
X112110702Y-116607438D01*
X112155134Y-116565625D01*
X112313024Y-116477202D01*
X112318063Y-116474380D01*
X112376193Y-116426035D01*
X112468034Y-116349652D01*
X112472466Y-116345966D01*
X112600880Y-116191563D01*
X112699007Y-116016345D01*
X112763560Y-115826179D01*
X112792377Y-115627432D01*
X112793881Y-115570000D01*
X112775505Y-115370018D01*
X112720993Y-115176734D01*
X112710556Y-115155568D01*
X112634726Y-115001801D01*
X112632171Y-114996620D01*
X112617847Y-114977437D01*
X112515466Y-114840333D01*
X112515465Y-114840332D01*
X112512013Y-114835709D01*
X112364543Y-114699389D01*
X112194701Y-114592226D01*
X112008173Y-114517809D01*
X111879706Y-114492256D01*
X111816875Y-114479758D01*
X111816873Y-114479758D01*
X111811208Y-114478631D01*
X111805433Y-114478555D01*
X111805429Y-114478555D01*
X111705018Y-114477241D01*
X111610400Y-114476002D01*
X111604703Y-114476981D01*
X111604702Y-114476981D01*
X111418174Y-114509032D01*
X111418173Y-114509032D01*
X111412477Y-114510011D01*
X111224065Y-114579520D01*
X111219104Y-114582472D01*
X111219103Y-114582472D01*
X111056444Y-114679244D01*
X111056441Y-114679246D01*
X111051476Y-114682200D01*
X110900488Y-114814613D01*
X110776159Y-114972323D01*
X110773470Y-114977434D01*
X110773468Y-114977437D01*
X110760650Y-115001801D01*
X110682652Y-115150050D01*
X110623099Y-115341842D01*
X110599495Y-115541274D01*
X110612630Y-115741668D01*
X110662063Y-115936313D01*
X110746140Y-116118690D01*
X110749473Y-116123406D01*
X110800777Y-116195999D01*
X110862045Y-116282692D01*
X111005896Y-116422825D01*
X111172875Y-116534397D01*
X111178178Y-116536675D01*
X111178181Y-116536677D01*
X111353038Y-116611801D01*
X111407731Y-116657069D01*
X111429300Y-116727569D01*
X111429300Y-116879501D01*
X111409298Y-116947622D01*
X111355642Y-116994115D01*
X111303300Y-117005501D01*
X110899934Y-117005501D01*
X110864182Y-117012612D01*
X110837874Y-117017844D01*
X110837872Y-117017845D01*
X110825699Y-117020266D01*
X110815379Y-117027161D01*
X110815378Y-117027162D01*
X110765955Y-117060186D01*
X110741516Y-117076516D01*
X110685266Y-117160699D01*
X110670500Y-117234933D01*
X110670501Y-118985066D01*
X110671709Y-118991139D01*
X110671709Y-118991140D01*
X110672228Y-118993751D01*
X110672103Y-118995144D01*
X110672315Y-118997294D01*
X110671907Y-118997334D01*
X110665896Y-119064465D01*
X110622338Y-119120529D01*
X110548930Y-119144325D01*
X109837284Y-119145916D01*
X109812424Y-119143495D01*
X109812173Y-119143445D01*
X109812172Y-119143445D01*
X109800000Y-119141024D01*
X109788082Y-119143395D01*
X109772406Y-119142367D01*
X109717837Y-119135183D01*
X109686066Y-119126670D01*
X109636122Y-119105983D01*
X109624826Y-119101304D01*
X109596341Y-119084858D01*
X109543753Y-119044506D01*
X109520494Y-119021247D01*
X109480142Y-118968659D01*
X109463696Y-118940174D01*
X109438330Y-118878936D01*
X109429817Y-118847163D01*
X109422633Y-118792594D01*
X109421605Y-118776918D01*
X109423976Y-118765000D01*
X109421421Y-118752153D01*
X109419000Y-118727575D01*
X109419000Y-107931780D01*
X110103655Y-107931780D01*
X110104879Y-107942120D01*
X110107627Y-107965342D01*
X110107979Y-107971320D01*
X110108072Y-107971312D01*
X110108500Y-107976490D01*
X110108500Y-107981692D01*
X110110941Y-107996354D01*
X110111686Y-108000832D01*
X110112522Y-108006704D01*
X110118582Y-108057907D01*
X110122567Y-108066206D01*
X110124078Y-108075283D01*
X110148558Y-108120651D01*
X110151239Y-108125914D01*
X110170127Y-108165250D01*
X110170130Y-108165254D01*
X110173560Y-108172398D01*
X110177170Y-108176692D01*
X110179102Y-108178624D01*
X110180889Y-108180573D01*
X110180918Y-108180626D01*
X110180788Y-108180745D01*
X110181289Y-108181313D01*
X110184388Y-108187057D01*
X110192033Y-108194124D01*
X110224209Y-108223867D01*
X110227775Y-108227297D01*
X110816954Y-108816476D01*
X110832318Y-108835499D01*
X110833282Y-108836558D01*
X110838929Y-108845304D01*
X110847108Y-108851752D01*
X110847110Y-108851754D01*
X110865477Y-108866234D01*
X110869950Y-108870209D01*
X110870011Y-108870137D01*
X110873968Y-108873490D01*
X110877649Y-108877171D01*
X110891140Y-108886812D01*
X110893439Y-108888455D01*
X110898185Y-108892018D01*
X110938670Y-108923934D01*
X110947355Y-108926984D01*
X110954843Y-108932335D01*
X111004250Y-108947110D01*
X111009837Y-108948926D01*
X111058502Y-108966016D01*
X111064091Y-108966500D01*
X111065474Y-108966500D01*
X111066654Y-108966754D01*
X111129039Y-109000646D01*
X111158115Y-109045700D01*
X111170217Y-109077982D01*
X111175601Y-109085165D01*
X111175601Y-109085166D01*
X111250429Y-109185008D01*
X111255811Y-109192189D01*
X111262992Y-109197571D01*
X111311275Y-109233757D01*
X111370018Y-109277783D01*
X111378426Y-109280935D01*
X111496260Y-109325108D01*
X111496262Y-109325109D01*
X111503658Y-109327881D01*
X111564585Y-109334500D01*
X111607961Y-109334500D01*
X112218286Y-109334499D01*
X112286407Y-109354501D01*
X112307382Y-109371404D01*
X112646460Y-109710483D01*
X112661814Y-109729494D01*
X112662780Y-109730556D01*
X112668429Y-109739304D01*
X112676604Y-109745748D01*
X112676606Y-109745751D01*
X112694972Y-109760229D01*
X112699450Y-109764208D01*
X112699510Y-109764137D01*
X112703467Y-109767490D01*
X112707148Y-109771171D01*
X112711380Y-109774195D01*
X112711382Y-109774197D01*
X112722957Y-109782469D01*
X112727702Y-109786032D01*
X112768170Y-109817934D01*
X112776855Y-109820984D01*
X112784342Y-109826334D01*
X112833747Y-109841109D01*
X112839342Y-109842927D01*
X112888002Y-109860016D01*
X112893591Y-109860500D01*
X112896304Y-109860500D01*
X112898969Y-109860615D01*
X112899032Y-109860634D01*
X112899025Y-109860808D01*
X112899771Y-109860855D01*
X112906024Y-109862725D01*
X112955883Y-109860766D01*
X112960178Y-109860597D01*
X112965125Y-109860500D01*
X113523261Y-109860500D01*
X113591382Y-109880502D01*
X113612356Y-109897405D01*
X113675277Y-109960326D01*
X113789445Y-110018498D01*
X113884166Y-110033500D01*
X114972834Y-110033500D01*
X115067555Y-110018498D01*
X115181723Y-109960326D01*
X115272326Y-109869723D01*
X115330498Y-109755555D01*
X115345500Y-109660834D01*
X115345500Y-109297166D01*
X115330498Y-109202445D01*
X115272326Y-109088277D01*
X115181723Y-108997674D01*
X115067555Y-108939502D01*
X114972834Y-108924500D01*
X113884166Y-108924500D01*
X113789445Y-108939502D01*
X113675277Y-108997674D01*
X113612356Y-109060595D01*
X113550044Y-109094621D01*
X113523261Y-109097500D01*
X113164712Y-109097500D01*
X113096591Y-109077498D01*
X113075617Y-109060595D01*
X113053031Y-109038009D01*
X113019005Y-108975697D01*
X113016863Y-108935306D01*
X113022131Y-108886812D01*
X113022131Y-108886811D01*
X113022500Y-108883415D01*
X113022500Y-108794871D01*
X115539456Y-108794871D01*
X115580107Y-108934790D01*
X115586352Y-108949221D01*
X115662911Y-109078678D01*
X115672551Y-109091104D01*
X115753697Y-109172250D01*
X115787723Y-109234562D01*
X115789051Y-109281051D01*
X115787275Y-109292264D01*
X115787274Y-109292281D01*
X115786500Y-109297166D01*
X115786500Y-109660834D01*
X115801502Y-109755555D01*
X115859674Y-109869723D01*
X115950277Y-109960326D01*
X116064445Y-110018498D01*
X116159166Y-110033500D01*
X116196000Y-110033500D01*
X116264121Y-110053502D01*
X116310614Y-110107158D01*
X116322000Y-110159500D01*
X116322000Y-110249365D01*
X116319414Y-110273664D01*
X116319346Y-110275102D01*
X116317155Y-110285280D01*
X116318379Y-110295620D01*
X116321127Y-110318842D01*
X116321479Y-110324820D01*
X116321572Y-110324812D01*
X116322000Y-110329990D01*
X116322000Y-110335192D01*
X116322854Y-110340322D01*
X116325186Y-110354332D01*
X116326023Y-110360211D01*
X116330206Y-110395553D01*
X116332082Y-110411407D01*
X116336067Y-110419706D01*
X116337578Y-110428783D01*
X116362058Y-110474151D01*
X116364739Y-110479414D01*
X116383627Y-110518750D01*
X116383630Y-110518754D01*
X116387060Y-110525898D01*
X116390670Y-110530192D01*
X116392602Y-110532124D01*
X116394389Y-110534073D01*
X116394418Y-110534126D01*
X116394288Y-110534245D01*
X116394789Y-110534813D01*
X116397888Y-110540557D01*
X116405533Y-110547624D01*
X116437695Y-110577354D01*
X116441262Y-110580784D01*
X116896960Y-111036483D01*
X116912314Y-111055494D01*
X116913280Y-111056556D01*
X116918929Y-111065304D01*
X116927104Y-111071748D01*
X116927106Y-111071751D01*
X116945472Y-111086229D01*
X116949950Y-111090208D01*
X116950010Y-111090137D01*
X116953967Y-111093490D01*
X116957648Y-111097171D01*
X116961880Y-111100195D01*
X116961882Y-111100197D01*
X116973457Y-111108469D01*
X116978202Y-111112032D01*
X117018670Y-111143934D01*
X117027355Y-111146984D01*
X117034842Y-111152334D01*
X117084247Y-111167109D01*
X117089842Y-111168927D01*
X117138502Y-111186016D01*
X117144091Y-111186500D01*
X117146804Y-111186500D01*
X117149469Y-111186615D01*
X117149532Y-111186634D01*
X117149525Y-111186808D01*
X117150271Y-111186855D01*
X117156524Y-111188725D01*
X117206383Y-111186766D01*
X117210678Y-111186597D01*
X117215625Y-111186500D01*
X117816141Y-111186500D01*
X117884262Y-111206502D01*
X117930755Y-111260158D01*
X117934123Y-111268271D01*
X117945929Y-111299764D01*
X117951309Y-111306943D01*
X117951311Y-111306946D01*
X118017287Y-111394977D01*
X118032596Y-111415404D01*
X118039776Y-111420785D01*
X118141054Y-111496689D01*
X118141057Y-111496691D01*
X118148236Y-111502071D01*
X118237954Y-111535704D01*
X118276157Y-111550026D01*
X118276159Y-111550026D01*
X118283552Y-111552798D01*
X118291402Y-111553651D01*
X118291403Y-111553651D01*
X118336941Y-111558598D01*
X118345244Y-111559500D01*
X118385692Y-111559500D01*
X118453813Y-111579502D01*
X118500306Y-111633158D01*
X118510410Y-111703432D01*
X118480916Y-111768012D01*
X118479105Y-111769957D01*
X118473929Y-111773929D01*
X118378172Y-111898723D01*
X118317977Y-112044047D01*
X118297445Y-112200000D01*
X118317977Y-112355953D01*
X118378172Y-112501277D01*
X118473929Y-112626071D01*
X118598722Y-112721828D01*
X118744047Y-112782023D01*
X118900000Y-112802555D01*
X119055953Y-112782023D01*
X119201278Y-112721828D01*
X119326071Y-112626071D01*
X119421828Y-112501277D01*
X119482023Y-112355953D01*
X119502555Y-112200000D01*
X119482023Y-112044047D01*
X119421828Y-111898723D01*
X119326071Y-111773929D01*
X119322689Y-111771334D01*
X119289549Y-111710649D01*
X119294612Y-111639833D01*
X119337156Y-111582996D01*
X119399060Y-111558598D01*
X119444598Y-111553651D01*
X119444600Y-111553651D01*
X119452448Y-111552798D01*
X119459841Y-111550026D01*
X119459843Y-111550026D01*
X119498046Y-111535704D01*
X119587764Y-111502071D01*
X119594943Y-111496691D01*
X119594946Y-111496689D01*
X119696224Y-111420785D01*
X119703404Y-111415404D01*
X119718713Y-111394977D01*
X119784689Y-111306946D01*
X119784691Y-111306943D01*
X119790071Y-111299764D01*
X119831697Y-111188725D01*
X119838026Y-111171843D01*
X119838026Y-111171841D01*
X119840798Y-111164448D01*
X119842280Y-111150811D01*
X119847131Y-111106153D01*
X119847131Y-111106152D01*
X119847500Y-111102756D01*
X119847500Y-110507244D01*
X119843902Y-110474122D01*
X119841651Y-110453403D01*
X119841651Y-110453402D01*
X119840798Y-110445552D01*
X119832417Y-110423194D01*
X119818696Y-110386595D01*
X119790071Y-110310236D01*
X119784691Y-110303057D01*
X119784689Y-110303054D01*
X119708785Y-110201776D01*
X119703404Y-110194596D01*
X119587764Y-110107929D01*
X119579355Y-110104777D01*
X119572126Y-110100819D01*
X119521979Y-110050562D01*
X119506964Y-109981171D01*
X119531848Y-109914678D01*
X119592757Y-109870774D01*
X119659784Y-109848412D01*
X119672962Y-109842239D01*
X119810807Y-109756937D01*
X119822208Y-109747901D01*
X119936739Y-109633171D01*
X119945751Y-109621760D01*
X120030816Y-109483757D01*
X120036963Y-109470576D01*
X120088138Y-109316290D01*
X120091005Y-109302914D01*
X120100672Y-109208562D01*
X120101000Y-109202146D01*
X120101000Y-109177115D01*
X120096525Y-109161876D01*
X120095135Y-109160671D01*
X120087452Y-109159000D01*
X118740000Y-109159000D01*
X118671879Y-109138998D01*
X118625386Y-109085342D01*
X118614000Y-109033000D01*
X118614000Y-108952095D01*
X120392001Y-108952095D01*
X120392338Y-108958614D01*
X120402257Y-109054206D01*
X120405149Y-109067600D01*
X120456588Y-109221784D01*
X120462761Y-109234962D01*
X120548063Y-109372807D01*
X120557099Y-109384208D01*
X120671829Y-109498739D01*
X120683240Y-109507751D01*
X120821243Y-109592816D01*
X120834424Y-109598963D01*
X120988710Y-109650138D01*
X121002086Y-109653005D01*
X121096438Y-109662672D01*
X121102854Y-109663000D01*
X122377885Y-109663000D01*
X122393124Y-109658525D01*
X122394329Y-109657135D01*
X122396000Y-109649452D01*
X122396000Y-109644884D01*
X122904000Y-109644884D01*
X122908475Y-109660123D01*
X122909865Y-109661328D01*
X122917548Y-109662999D01*
X124197095Y-109662999D01*
X124203614Y-109662662D01*
X124299206Y-109652743D01*
X124312600Y-109649851D01*
X124466784Y-109598412D01*
X124479962Y-109592239D01*
X124617807Y-109506937D01*
X124629208Y-109497901D01*
X124743739Y-109383171D01*
X124752751Y-109371760D01*
X124837816Y-109233757D01*
X124843963Y-109220576D01*
X124895138Y-109066290D01*
X124898005Y-109052914D01*
X124907672Y-108958562D01*
X124908000Y-108952146D01*
X124908000Y-108927115D01*
X124903525Y-108911876D01*
X124902135Y-108910671D01*
X124894452Y-108909000D01*
X122922115Y-108909000D01*
X122906876Y-108913475D01*
X122905671Y-108914865D01*
X122904000Y-108922548D01*
X122904000Y-109644884D01*
X122396000Y-109644884D01*
X122396000Y-108927115D01*
X122391525Y-108911876D01*
X122390135Y-108910671D01*
X122382452Y-108909000D01*
X120410116Y-108909000D01*
X120394877Y-108913475D01*
X120393672Y-108914865D01*
X120392001Y-108922548D01*
X120392001Y-108952095D01*
X118614000Y-108952095D01*
X118614000Y-108777000D01*
X118634002Y-108708879D01*
X118687658Y-108662386D01*
X118740000Y-108651000D01*
X120082884Y-108651000D01*
X120098123Y-108646525D01*
X120099328Y-108645135D01*
X120100999Y-108637452D01*
X120100999Y-108607905D01*
X120100662Y-108601386D01*
X120090743Y-108505794D01*
X120087851Y-108492400D01*
X120051315Y-108382885D01*
X120392000Y-108382885D01*
X120396475Y-108398124D01*
X120397865Y-108399329D01*
X120405548Y-108401000D01*
X124889884Y-108401000D01*
X124905123Y-108396525D01*
X124906328Y-108395135D01*
X124907999Y-108387452D01*
X124907999Y-108357905D01*
X124907662Y-108351386D01*
X124897743Y-108255794D01*
X124894851Y-108242400D01*
X124843412Y-108088216D01*
X124837239Y-108075038D01*
X124751937Y-107937193D01*
X124742901Y-107925792D01*
X124628171Y-107811261D01*
X124616760Y-107802249D01*
X124478757Y-107717184D01*
X124465576Y-107711037D01*
X124311290Y-107659862D01*
X124297914Y-107656995D01*
X124261015Y-107653214D01*
X124195288Y-107626372D01*
X124154506Y-107568257D01*
X124151618Y-107497319D01*
X124187540Y-107436081D01*
X124244712Y-107405287D01*
X124251591Y-107403652D01*
X124259448Y-107402798D01*
X124266846Y-107400025D01*
X124266849Y-107400024D01*
X124326434Y-107377686D01*
X124394764Y-107352071D01*
X124401943Y-107346691D01*
X124401946Y-107346689D01*
X124503224Y-107270785D01*
X124510404Y-107265404D01*
X124538213Y-107228298D01*
X124591689Y-107156946D01*
X124591691Y-107156943D01*
X124597071Y-107149764D01*
X124647798Y-107014448D01*
X124650563Y-107015485D01*
X124678882Y-106965910D01*
X124741836Y-106933088D01*
X124766250Y-106930700D01*
X125138613Y-106930700D01*
X125206734Y-106950702D01*
X125238574Y-106979996D01*
X125273929Y-107026071D01*
X125280479Y-107031097D01*
X125280480Y-107031098D01*
X125297298Y-107044003D01*
X125398722Y-107121828D01*
X125544047Y-107182023D01*
X125700000Y-107202555D01*
X125855953Y-107182023D01*
X126001278Y-107121828D01*
X126126071Y-107026071D01*
X126221828Y-106901277D01*
X126282023Y-106755953D01*
X126302555Y-106600000D01*
X126282023Y-106444047D01*
X126221828Y-106298723D01*
X126126071Y-106173929D01*
X126001278Y-106078172D01*
X125855953Y-106017977D01*
X125700000Y-105997445D01*
X125544047Y-106017977D01*
X125398723Y-106078172D01*
X125392172Y-106083199D01*
X125280822Y-106168640D01*
X125273929Y-106173929D01*
X125257269Y-106195642D01*
X125238576Y-106220003D01*
X125181239Y-106261871D01*
X125138613Y-106269300D01*
X124725285Y-106269300D01*
X124657164Y-106249298D01*
X124610671Y-106195642D01*
X124607303Y-106187531D01*
X124606254Y-106184733D01*
X124597071Y-106160236D01*
X124591691Y-106153057D01*
X124591689Y-106153054D01*
X124515785Y-106051776D01*
X124510404Y-106044596D01*
X124448929Y-105998523D01*
X124401946Y-105963311D01*
X124401943Y-105963309D01*
X124394764Y-105957929D01*
X124287244Y-105917622D01*
X124266843Y-105909974D01*
X124266841Y-105909974D01*
X124259448Y-105907202D01*
X124251598Y-105906349D01*
X124251597Y-105906349D01*
X124201153Y-105900869D01*
X124201152Y-105900869D01*
X124197756Y-105900500D01*
X121102244Y-105900500D01*
X121098848Y-105900869D01*
X121098847Y-105900869D01*
X121048403Y-105906349D01*
X121048402Y-105906349D01*
X121040552Y-105907202D01*
X121033159Y-105909974D01*
X121033157Y-105909974D01*
X121012756Y-105917622D01*
X120905236Y-105957929D01*
X120898057Y-105963309D01*
X120898054Y-105963311D01*
X120851071Y-105998523D01*
X120789596Y-106044596D01*
X120784215Y-106051776D01*
X120708311Y-106153054D01*
X120708309Y-106153057D01*
X120702929Y-106160236D01*
X120680524Y-106220003D01*
X120667505Y-106254732D01*
X120652202Y-106295552D01*
X120645500Y-106357244D01*
X120645500Y-106952756D01*
X120652202Y-107014448D01*
X120654974Y-107021841D01*
X120654974Y-107021843D01*
X120669296Y-107060046D01*
X120702929Y-107149764D01*
X120708309Y-107156943D01*
X120708311Y-107156946D01*
X120761787Y-107228298D01*
X120789596Y-107265404D01*
X120796776Y-107270785D01*
X120898054Y-107346689D01*
X120898057Y-107346691D01*
X120905236Y-107352071D01*
X121040552Y-107402798D01*
X121048412Y-107403652D01*
X121055524Y-107405343D01*
X121117170Y-107440561D01*
X121149990Y-107503516D01*
X121143564Y-107574221D01*
X121099932Y-107630228D01*
X121039380Y-107653253D01*
X121000794Y-107657257D01*
X120987400Y-107660149D01*
X120833216Y-107711588D01*
X120820038Y-107717761D01*
X120682193Y-107803063D01*
X120670792Y-107812099D01*
X120556261Y-107926829D01*
X120547249Y-107938240D01*
X120462184Y-108076243D01*
X120456037Y-108089424D01*
X120404862Y-108243710D01*
X120401995Y-108257086D01*
X120392328Y-108351438D01*
X120392000Y-108357855D01*
X120392000Y-108382885D01*
X120051315Y-108382885D01*
X120036412Y-108338216D01*
X120030239Y-108325038D01*
X119944937Y-108187193D01*
X119935901Y-108175792D01*
X119821171Y-108061261D01*
X119809760Y-108052249D01*
X119701083Y-107985260D01*
X119653590Y-107932488D01*
X119642166Y-107862416D01*
X119670440Y-107797293D01*
X119673108Y-107794373D01*
X119678404Y-107790404D01*
X119700565Y-107760834D01*
X119759689Y-107681946D01*
X119759691Y-107681943D01*
X119765071Y-107674764D01*
X119815798Y-107539448D01*
X119822500Y-107477756D01*
X119822500Y-106857244D01*
X119815798Y-106795552D01*
X119765071Y-106660236D01*
X119759691Y-106653057D01*
X119759689Y-106653054D01*
X119683785Y-106551776D01*
X119678404Y-106544596D01*
X119610065Y-106493379D01*
X119569946Y-106463311D01*
X119569943Y-106463309D01*
X119562764Y-106457929D01*
X119435467Y-106410208D01*
X119434843Y-106409974D01*
X119434841Y-106409974D01*
X119427448Y-106407202D01*
X119419598Y-106406349D01*
X119419597Y-106406349D01*
X119369153Y-106400869D01*
X119369152Y-106400869D01*
X119365756Y-106400500D01*
X118370244Y-106400500D01*
X118366848Y-106400869D01*
X118366847Y-106400869D01*
X118316403Y-106406349D01*
X118316402Y-106406349D01*
X118308552Y-106407202D01*
X118301159Y-106409974D01*
X118301157Y-106409974D01*
X118300533Y-106410208D01*
X118173236Y-106457929D01*
X118166057Y-106463309D01*
X118166054Y-106463311D01*
X118125935Y-106493379D01*
X118057596Y-106544596D01*
X118052215Y-106551776D01*
X117976311Y-106653054D01*
X117976309Y-106653057D01*
X117970929Y-106660236D01*
X117920202Y-106795552D01*
X117913500Y-106857244D01*
X117913500Y-107122300D01*
X117893498Y-107190421D01*
X117839842Y-107236914D01*
X117787500Y-107248300D01*
X117653218Y-107248300D01*
X117585097Y-107228298D01*
X117551597Y-107196658D01*
X117547326Y-107188277D01*
X117456723Y-107097674D01*
X117342555Y-107039502D01*
X117247834Y-107024500D01*
X116159166Y-107024500D01*
X116064445Y-107039502D01*
X115950277Y-107097674D01*
X115859674Y-107188277D01*
X115801502Y-107302445D01*
X115786500Y-107397166D01*
X115786500Y-107760834D01*
X115787274Y-107765719D01*
X115787275Y-107765736D01*
X115789051Y-107776949D01*
X115779950Y-107847359D01*
X115753697Y-107885750D01*
X115672551Y-107966896D01*
X115662911Y-107979322D01*
X115586352Y-108108779D01*
X115580107Y-108123210D01*
X115541061Y-108257605D01*
X115541101Y-108271706D01*
X115548370Y-108275000D01*
X116831500Y-108275000D01*
X116899621Y-108295002D01*
X116946114Y-108348658D01*
X116957500Y-108401000D01*
X116957500Y-108657000D01*
X116937498Y-108725121D01*
X116883842Y-108771614D01*
X116831500Y-108783000D01*
X115554122Y-108783000D01*
X115540591Y-108786973D01*
X115539456Y-108794871D01*
X113022500Y-108794871D01*
X113022499Y-108301586D01*
X113021784Y-108295002D01*
X113016735Y-108248517D01*
X113016734Y-108248514D01*
X113015881Y-108240658D01*
X113010873Y-108227297D01*
X112968935Y-108115426D01*
X112965783Y-108107018D01*
X112933032Y-108063318D01*
X112885571Y-107999992D01*
X112880189Y-107992811D01*
X112845611Y-107966896D01*
X112773166Y-107912601D01*
X112773165Y-107912601D01*
X112765982Y-107907217D01*
X112735700Y-107895865D01*
X112639740Y-107859892D01*
X112639738Y-107859891D01*
X112632342Y-107857119D01*
X112571415Y-107850500D01*
X112068074Y-107850500D01*
X111564586Y-107850501D01*
X111561192Y-107850870D01*
X111561186Y-107850870D01*
X111511517Y-107856265D01*
X111511514Y-107856266D01*
X111503658Y-107857119D01*
X111496256Y-107859894D01*
X111496255Y-107859894D01*
X111400300Y-107895865D01*
X111370018Y-107907217D01*
X111362835Y-107912601D01*
X111362834Y-107912601D01*
X111290389Y-107966896D01*
X111255811Y-107992811D01*
X111252524Y-107997196D01*
X111191755Y-108030380D01*
X111120940Y-108025315D01*
X111075877Y-107996354D01*
X110908405Y-107828882D01*
X110874379Y-107766570D01*
X110871500Y-107739787D01*
X110871500Y-107094068D01*
X110891502Y-107025947D01*
X110945158Y-106979454D01*
X111015432Y-106969350D01*
X111080012Y-106998844D01*
X111119542Y-107064029D01*
X111120119Y-107069342D01*
X111170217Y-107202982D01*
X111255811Y-107317189D01*
X111262992Y-107322571D01*
X111306557Y-107355221D01*
X111370018Y-107402783D01*
X111378426Y-107405935D01*
X111496260Y-107450108D01*
X111496262Y-107450109D01*
X111503658Y-107452881D01*
X111564585Y-107459500D01*
X112067926Y-107459500D01*
X112571414Y-107459499D01*
X112574808Y-107459130D01*
X112574814Y-107459130D01*
X112624483Y-107453735D01*
X112624486Y-107453734D01*
X112632342Y-107452881D01*
X112665207Y-107440561D01*
X112757574Y-107405935D01*
X112765982Y-107402783D01*
X112829444Y-107355221D01*
X112873008Y-107322571D01*
X112880189Y-107317189D01*
X112965783Y-107202982D01*
X112985733Y-107149764D01*
X113013108Y-107076740D01*
X113013109Y-107076738D01*
X113015881Y-107069342D01*
X113022500Y-107008415D01*
X113022499Y-106426586D01*
X113022130Y-106423186D01*
X113016735Y-106373517D01*
X113016734Y-106373514D01*
X113015881Y-106365658D01*
X113011454Y-106353847D01*
X112968935Y-106240426D01*
X112965783Y-106232018D01*
X112922248Y-106173929D01*
X112885571Y-106124992D01*
X112880189Y-106117811D01*
X112869100Y-106109500D01*
X112773166Y-106037601D01*
X112773165Y-106037601D01*
X112765982Y-106032217D01*
X112727996Y-106017977D01*
X112639740Y-105984892D01*
X112639738Y-105984891D01*
X112632342Y-105982119D01*
X112571415Y-105975500D01*
X112524700Y-105975500D01*
X112456579Y-105955498D01*
X112410086Y-105901842D01*
X112398700Y-105849500D01*
X112398700Y-104621171D01*
X112418702Y-104553050D01*
X112435605Y-104532075D01*
X112700077Y-104267604D01*
X112762389Y-104233579D01*
X112789172Y-104230700D01*
X116148013Y-104230700D01*
X116216134Y-104250702D01*
X116262627Y-104304358D01*
X116272731Y-104374632D01*
X116243237Y-104439212D01*
X116237186Y-104445718D01*
X116130261Y-104552829D01*
X116121249Y-104564240D01*
X116032342Y-104708475D01*
X116030464Y-104707317D01*
X115990668Y-104752505D01*
X115922389Y-104771959D01*
X115854431Y-104751410D01*
X115822578Y-104721532D01*
X115784404Y-104670596D01*
X115729942Y-104629779D01*
X115675946Y-104589311D01*
X115675943Y-104589309D01*
X115668764Y-104583929D01*
X115579046Y-104550296D01*
X115540843Y-104535974D01*
X115540841Y-104535974D01*
X115533448Y-104533202D01*
X115525598Y-104532349D01*
X115525597Y-104532349D01*
X115475153Y-104526869D01*
X115475152Y-104526869D01*
X115471756Y-104526500D01*
X114851244Y-104526500D01*
X114847848Y-104526869D01*
X114847847Y-104526869D01*
X114797403Y-104532349D01*
X114797402Y-104532349D01*
X114789552Y-104533202D01*
X114782159Y-104535974D01*
X114782157Y-104535974D01*
X114743954Y-104550296D01*
X114654236Y-104583929D01*
X114647057Y-104589309D01*
X114647054Y-104589311D01*
X114593058Y-104629779D01*
X114538596Y-104670596D01*
X114533215Y-104677776D01*
X114457311Y-104779054D01*
X114457309Y-104779057D01*
X114451929Y-104786236D01*
X114401202Y-104921552D01*
X114394500Y-104983244D01*
X114394500Y-105728130D01*
X114374498Y-105796251D01*
X114357595Y-105817225D01*
X114208768Y-105966052D01*
X114200664Y-105973478D01*
X114179706Y-105991064D01*
X114179704Y-105991067D01*
X114171261Y-105998151D01*
X114160437Y-106016899D01*
X114152078Y-106031376D01*
X114146173Y-106040645D01*
X114130485Y-106063050D01*
X114130484Y-106063053D01*
X114124160Y-106072084D01*
X114121306Y-106082733D01*
X114119731Y-106086111D01*
X114118460Y-106089604D01*
X114112949Y-106099149D01*
X114111035Y-106110002D01*
X114111035Y-106110003D01*
X114106285Y-106136943D01*
X114103909Y-106147661D01*
X114093976Y-106184733D01*
X114094936Y-106195708D01*
X114094936Y-106195709D01*
X114097321Y-106222968D01*
X114097800Y-106233949D01*
X114097800Y-106898500D01*
X114077798Y-106966621D01*
X114024142Y-107013114D01*
X113971800Y-107024500D01*
X113884166Y-107024500D01*
X113789445Y-107039502D01*
X113675277Y-107097674D01*
X113584674Y-107188277D01*
X113526502Y-107302445D01*
X113511500Y-107397166D01*
X113511500Y-107760834D01*
X113526502Y-107855555D01*
X113584674Y-107969723D01*
X113675277Y-108060326D01*
X113789445Y-108118498D01*
X113884166Y-108133500D01*
X114972834Y-108133500D01*
X115067555Y-108118498D01*
X115181723Y-108060326D01*
X115272326Y-107969723D01*
X115330498Y-107855555D01*
X115345500Y-107760834D01*
X115345500Y-107397166D01*
X115330498Y-107302445D01*
X115272326Y-107188277D01*
X115181723Y-107097674D01*
X115067555Y-107039502D01*
X114972834Y-107024500D01*
X114885200Y-107024500D01*
X114817079Y-107004498D01*
X114770586Y-106950842D01*
X114759200Y-106898500D01*
X114759200Y-106561500D01*
X114779202Y-106493379D01*
X114832858Y-106446886D01*
X114885200Y-106435500D01*
X115471756Y-106435500D01*
X115475153Y-106435131D01*
X115525597Y-106429651D01*
X115525598Y-106429651D01*
X115533448Y-106428798D01*
X115540841Y-106426026D01*
X115540843Y-106426026D01*
X115593331Y-106406349D01*
X115668764Y-106378071D01*
X115675943Y-106372691D01*
X115675946Y-106372689D01*
X115777224Y-106296785D01*
X115784404Y-106291404D01*
X115822589Y-106240454D01*
X115879446Y-106197941D01*
X115950264Y-106192915D01*
X116012558Y-106226975D01*
X116032287Y-106255115D01*
X116032906Y-106254732D01*
X116122063Y-106398807D01*
X116131099Y-106410208D01*
X116245829Y-106524739D01*
X116257240Y-106533751D01*
X116395243Y-106618816D01*
X116408424Y-106624963D01*
X116562710Y-106676138D01*
X116576086Y-106679005D01*
X116670438Y-106688672D01*
X116676854Y-106689000D01*
X116714385Y-106689000D01*
X116729624Y-106684525D01*
X116730829Y-106683135D01*
X116732500Y-106675452D01*
X116732500Y-105353000D01*
X116752502Y-105284879D01*
X116806158Y-105238386D01*
X116858500Y-105227000D01*
X117114500Y-105227000D01*
X117182621Y-105247002D01*
X117229114Y-105300658D01*
X117240500Y-105353000D01*
X117240500Y-106670884D01*
X117244975Y-106686123D01*
X117246365Y-106687328D01*
X117254048Y-106688999D01*
X117296095Y-106688999D01*
X117302614Y-106688662D01*
X117398206Y-106678743D01*
X117411600Y-106675851D01*
X117565784Y-106624412D01*
X117578962Y-106618239D01*
X117716807Y-106532937D01*
X117728208Y-106523901D01*
X117842739Y-106409171D01*
X117851751Y-106397760D01*
X117936816Y-106259757D01*
X117942963Y-106246576D01*
X117985792Y-106117452D01*
X118026223Y-106059093D01*
X118091787Y-106031856D01*
X118165894Y-106046600D01*
X118166050Y-106046685D01*
X118173236Y-106052071D01*
X118181639Y-106055221D01*
X118181643Y-106055223D01*
X118301157Y-106100026D01*
X118301159Y-106100026D01*
X118308552Y-106102798D01*
X118316402Y-106103651D01*
X118316403Y-106103651D01*
X118366847Y-106109131D01*
X118370244Y-106109500D01*
X119365756Y-106109500D01*
X119369153Y-106109131D01*
X119419597Y-106103651D01*
X119419598Y-106103651D01*
X119427448Y-106102798D01*
X119434841Y-106100026D01*
X119434843Y-106100026D01*
X119479729Y-106083199D01*
X119562764Y-106052071D01*
X119569943Y-106046691D01*
X119569946Y-106046689D01*
X119664439Y-105975870D01*
X119678404Y-105965404D01*
X119693713Y-105944977D01*
X119759689Y-105856946D01*
X119759691Y-105856943D01*
X119765071Y-105849764D01*
X119815798Y-105714448D01*
X119822500Y-105652756D01*
X119822500Y-105032244D01*
X119815798Y-104970552D01*
X119765071Y-104835236D01*
X119759691Y-104828057D01*
X119759689Y-104828054D01*
X119683785Y-104726776D01*
X119678404Y-104719596D01*
X119643240Y-104693242D01*
X119569946Y-104638311D01*
X119569943Y-104638309D01*
X119562764Y-104632929D01*
X119460886Y-104594737D01*
X119434843Y-104584974D01*
X119434841Y-104584974D01*
X119427448Y-104582202D01*
X119419598Y-104581349D01*
X119419597Y-104581349D01*
X119369153Y-104575869D01*
X119369152Y-104575869D01*
X119365756Y-104575500D01*
X119156700Y-104575500D01*
X119088579Y-104555498D01*
X119042086Y-104501842D01*
X119030700Y-104449500D01*
X119030700Y-104319938D01*
X119031179Y-104308957D01*
X119033563Y-104281710D01*
X119033563Y-104281708D01*
X119034523Y-104270733D01*
X119031285Y-104258645D01*
X119024596Y-104233682D01*
X119022217Y-104222953D01*
X119017465Y-104196003D01*
X119017465Y-104196002D01*
X119015551Y-104185149D01*
X119010040Y-104175604D01*
X119008770Y-104172114D01*
X119007194Y-104168735D01*
X119004340Y-104158083D01*
X118982322Y-104126639D01*
X118976426Y-104117383D01*
X118962751Y-104093698D01*
X118957239Y-104084151D01*
X118948796Y-104077066D01*
X118948793Y-104077063D01*
X118927836Y-104059478D01*
X118919732Y-104052052D01*
X118547948Y-103680268D01*
X118540522Y-103672164D01*
X118522936Y-103651206D01*
X118522933Y-103651204D01*
X118515849Y-103642761D01*
X118482625Y-103623578D01*
X118473355Y-103617673D01*
X118450950Y-103601985D01*
X118450947Y-103601984D01*
X118441916Y-103595660D01*
X118431267Y-103592806D01*
X118427889Y-103591231D01*
X118424396Y-103589960D01*
X118414851Y-103584449D01*
X118403998Y-103582535D01*
X118403997Y-103582535D01*
X118392900Y-103580578D01*
X118377053Y-103577784D01*
X118366339Y-103575409D01*
X118329267Y-103565476D01*
X118318292Y-103566436D01*
X118318291Y-103566436D01*
X118291032Y-103568821D01*
X118280051Y-103569300D01*
X112619949Y-103569300D01*
X112608968Y-103568821D01*
X112581709Y-103566436D01*
X112581708Y-103566436D01*
X112570733Y-103565476D01*
X112533661Y-103575409D01*
X112522947Y-103577784D01*
X112507100Y-103580578D01*
X112496003Y-103582535D01*
X112496002Y-103582535D01*
X112485149Y-103584449D01*
X112475604Y-103589960D01*
X112472111Y-103591231D01*
X112468733Y-103592806D01*
X112458084Y-103595660D01*
X112449053Y-103601984D01*
X112449050Y-103601985D01*
X112426645Y-103617673D01*
X112417377Y-103623578D01*
X112384151Y-103642761D01*
X112377068Y-103651202D01*
X112377067Y-103651203D01*
X112359488Y-103672153D01*
X112352063Y-103680256D01*
X111848263Y-104184057D01*
X111840159Y-104191483D01*
X111810761Y-104216151D01*
X111792382Y-104247983D01*
X111791578Y-104249376D01*
X111785673Y-104258645D01*
X111769985Y-104281050D01*
X111769984Y-104281053D01*
X111763660Y-104290084D01*
X111760806Y-104300733D01*
X111759231Y-104304111D01*
X111757960Y-104307604D01*
X111752449Y-104317149D01*
X111750535Y-104328002D01*
X111750535Y-104328003D01*
X111745785Y-104354943D01*
X111743409Y-104365661D01*
X111733476Y-104402733D01*
X111734436Y-104413708D01*
X111734436Y-104413709D01*
X111736821Y-104440968D01*
X111737300Y-104451949D01*
X111737300Y-105849501D01*
X111717298Y-105917622D01*
X111663642Y-105964115D01*
X111611300Y-105975501D01*
X111564586Y-105975501D01*
X111561192Y-105975870D01*
X111561186Y-105975870D01*
X111511517Y-105981265D01*
X111511514Y-105981266D01*
X111503658Y-105982119D01*
X111496256Y-105984894D01*
X111496255Y-105984894D01*
X111460891Y-105998151D01*
X111370018Y-106032217D01*
X111362835Y-106037601D01*
X111362834Y-106037601D01*
X111266900Y-106109500D01*
X111255811Y-106117811D01*
X111250429Y-106124992D01*
X111213753Y-106173929D01*
X111170217Y-106232018D01*
X111167065Y-106240426D01*
X111124547Y-106353847D01*
X111120119Y-106365658D01*
X111119535Y-106371037D01*
X111084864Y-106431725D01*
X111021909Y-106464544D01*
X110951203Y-106458117D01*
X110895197Y-106414485D01*
X110871500Y-106340931D01*
X110871500Y-103715212D01*
X110891502Y-103647091D01*
X110908405Y-103626117D01*
X111246117Y-103288405D01*
X111308429Y-103254379D01*
X111335212Y-103251500D01*
X115515865Y-103251500D01*
X115540164Y-103254086D01*
X115541602Y-103254154D01*
X115551780Y-103256345D01*
X115585341Y-103252373D01*
X115591320Y-103252021D01*
X115591312Y-103251928D01*
X115596490Y-103251500D01*
X115601692Y-103251500D01*
X115620846Y-103248312D01*
X115626704Y-103247478D01*
X115643653Y-103245472D01*
X115667567Y-103242642D01*
X115667568Y-103242642D01*
X115677907Y-103241418D01*
X115686206Y-103237433D01*
X115695283Y-103235922D01*
X115740651Y-103211442D01*
X115745914Y-103208761D01*
X115785250Y-103189873D01*
X115785254Y-103189870D01*
X115792398Y-103186440D01*
X115796692Y-103182830D01*
X115798624Y-103180898D01*
X115800573Y-103179111D01*
X115800626Y-103179082D01*
X115800745Y-103179212D01*
X115801313Y-103178711D01*
X115807057Y-103175612D01*
X115843868Y-103135790D01*
X115847297Y-103132225D01*
X117007976Y-101971546D01*
X117026999Y-101956182D01*
X117028058Y-101955218D01*
X117036804Y-101949571D01*
X117043252Y-101941392D01*
X117043254Y-101941390D01*
X117057734Y-101923023D01*
X117061709Y-101918550D01*
X117061637Y-101918489D01*
X117064990Y-101914532D01*
X117068671Y-101910851D01*
X117079955Y-101895060D01*
X117083519Y-101890314D01*
X117108987Y-101858008D01*
X117115434Y-101849830D01*
X117118484Y-101841145D01*
X117123835Y-101833657D01*
X117138610Y-101784250D01*
X117140426Y-101778663D01*
X117157516Y-101729998D01*
X117158000Y-101724409D01*
X117158000Y-101721698D01*
X117158115Y-101719029D01*
X117158134Y-101718968D01*
X117158308Y-101718975D01*
X117158355Y-101718228D01*
X117160225Y-101711975D01*
X117158097Y-101657811D01*
X117158000Y-101652865D01*
X117158000Y-101442624D01*
X117178002Y-101374503D01*
X117224173Y-101334878D01*
X117222845Y-101332507D01*
X117393024Y-101237202D01*
X117398063Y-101234380D01*
X117456193Y-101186035D01*
X117548034Y-101109652D01*
X117552466Y-101105966D01*
X117680880Y-100951563D01*
X117779007Y-100776345D01*
X117820804Y-100653217D01*
X117841702Y-100591653D01*
X117841702Y-100591651D01*
X117843560Y-100586179D01*
X117872377Y-100387432D01*
X117873881Y-100330000D01*
X117855505Y-100130018D01*
X117806985Y-99957979D01*
X117802561Y-99942293D01*
X117802560Y-99942291D01*
X117800993Y-99936734D01*
X117793076Y-99920678D01*
X117714726Y-99761801D01*
X117712171Y-99756620D01*
X117697847Y-99737437D01*
X117595466Y-99600333D01*
X117595465Y-99600332D01*
X117592013Y-99595709D01*
X117444543Y-99459389D01*
X117274701Y-99352226D01*
X117088173Y-99277809D01*
X116949888Y-99250303D01*
X116896875Y-99239758D01*
X116896873Y-99239758D01*
X116891208Y-99238631D01*
X116885433Y-99238555D01*
X116885429Y-99238555D01*
X116785018Y-99237241D01*
X116690400Y-99236002D01*
X116684703Y-99236981D01*
X116684702Y-99236981D01*
X116498174Y-99269032D01*
X116498173Y-99269032D01*
X116492477Y-99270011D01*
X116304065Y-99339520D01*
X116299104Y-99342472D01*
X116299103Y-99342472D01*
X116136444Y-99439244D01*
X116136441Y-99439246D01*
X116131476Y-99442200D01*
X115980488Y-99574613D01*
X115856159Y-99732323D01*
X115853470Y-99737434D01*
X115853468Y-99737437D01*
X115840650Y-99761801D01*
X115762652Y-99910050D01*
X115760939Y-99915568D01*
X115760936Y-99915575D01*
X115760382Y-99917358D01*
X115759892Y-99918096D01*
X115758727Y-99920907D01*
X115758175Y-99920678D01*
X115721074Y-99976481D01*
X115656043Y-100004966D01*
X115585934Y-99993771D01*
X115533008Y-99946450D01*
X115518345Y-99912595D01*
X115507770Y-99873126D01*
X115504023Y-99862832D01*
X115409123Y-99659316D01*
X115403640Y-99649821D01*
X115361419Y-99589523D01*
X115350942Y-99581148D01*
X115337496Y-99588215D01*
X114608521Y-100317189D01*
X114600908Y-100331132D01*
X114601039Y-100332966D01*
X114605290Y-100339580D01*
X115338220Y-101072509D01*
X115349990Y-101078936D01*
X115362004Y-101069642D01*
X115403640Y-101010179D01*
X115409123Y-101000684D01*
X115504023Y-100797168D01*
X115507771Y-100786871D01*
X115519028Y-100744860D01*
X115555980Y-100684238D01*
X115619841Y-100653217D01*
X115690335Y-100661647D01*
X115745082Y-100706850D01*
X115755159Y-100724719D01*
X115826140Y-100878690D01*
X115829473Y-100883406D01*
X115880777Y-100955999D01*
X115942045Y-101042692D01*
X116085896Y-101182825D01*
X116252875Y-101294397D01*
X116258178Y-101296675D01*
X116258183Y-101296678D01*
X116301253Y-101315182D01*
X116318738Y-101322693D01*
X116373430Y-101367961D01*
X116395000Y-101438461D01*
X116395000Y-101453287D01*
X116374998Y-101521408D01*
X116358095Y-101542382D01*
X115448882Y-102451595D01*
X115386570Y-102485621D01*
X115359787Y-102488500D01*
X111179140Y-102488500D01*
X111154824Y-102485913D01*
X111153401Y-102485846D01*
X111143220Y-102483654D01*
X111109681Y-102487624D01*
X111109652Y-102487627D01*
X111103678Y-102487979D01*
X111103686Y-102488072D01*
X111098508Y-102488500D01*
X111093308Y-102488500D01*
X111088179Y-102489354D01*
X111088176Y-102489354D01*
X111074165Y-102491686D01*
X111068286Y-102492523D01*
X111027433Y-102497358D01*
X111027432Y-102497358D01*
X111017093Y-102498582D01*
X111008794Y-102502567D01*
X110999717Y-102504078D01*
X110954349Y-102528558D01*
X110949086Y-102531239D01*
X110902602Y-102553560D01*
X110898308Y-102557169D01*
X110896382Y-102559095D01*
X110894424Y-102560891D01*
X110894367Y-102560921D01*
X110894249Y-102560792D01*
X110893684Y-102561290D01*
X110887943Y-102564388D01*
X110880874Y-102572035D01*
X110880873Y-102572036D01*
X110851146Y-102604195D01*
X110847716Y-102607761D01*
X110258521Y-103196956D01*
X110239505Y-103212315D01*
X110238444Y-103213281D01*
X110229696Y-103218929D01*
X110223250Y-103227106D01*
X110208771Y-103245472D01*
X110204794Y-103249947D01*
X110204865Y-103250008D01*
X110201512Y-103253965D01*
X110197829Y-103257648D01*
X110194803Y-103261883D01*
X110194801Y-103261885D01*
X110186547Y-103273436D01*
X110182982Y-103278185D01*
X110160107Y-103307202D01*
X110151066Y-103318670D01*
X110148015Y-103327357D01*
X110142666Y-103334843D01*
X110139683Y-103344819D01*
X110139682Y-103344820D01*
X110127902Y-103384211D01*
X110126072Y-103389843D01*
X110108984Y-103438502D01*
X110108500Y-103444091D01*
X110108500Y-103446802D01*
X110108385Y-103449469D01*
X110108366Y-103449532D01*
X110108192Y-103449525D01*
X110108145Y-103450271D01*
X110106275Y-103456524D01*
X110106684Y-103466928D01*
X110108403Y-103510678D01*
X110108500Y-103515625D01*
X110108500Y-107895865D01*
X110105914Y-107920164D01*
X110105846Y-107921602D01*
X110103655Y-107931780D01*
X109419000Y-107931780D01*
X109419000Y-101443490D01*
X113487564Y-101443490D01*
X113496858Y-101455504D01*
X113556321Y-101497140D01*
X113565816Y-101502623D01*
X113769332Y-101597523D01*
X113779624Y-101601269D01*
X113996527Y-101659388D01*
X114007322Y-101661291D01*
X114231025Y-101680863D01*
X114241975Y-101680863D01*
X114465678Y-101661291D01*
X114476473Y-101659388D01*
X114693376Y-101601269D01*
X114703668Y-101597523D01*
X114907184Y-101502623D01*
X114916679Y-101497140D01*
X114976977Y-101454919D01*
X114985352Y-101444442D01*
X114978285Y-101430996D01*
X114249311Y-100702021D01*
X114235368Y-100694408D01*
X114233534Y-100694539D01*
X114226920Y-100698790D01*
X113493991Y-101431720D01*
X113487564Y-101443490D01*
X109419000Y-101443490D01*
X109419000Y-100301274D01*
X110599495Y-100301274D01*
X110612630Y-100501668D01*
X110662063Y-100696313D01*
X110746140Y-100878690D01*
X110749473Y-100883406D01*
X110800777Y-100955999D01*
X110862045Y-101042692D01*
X111005896Y-101182825D01*
X111172875Y-101294397D01*
X111178178Y-101296675D01*
X111178181Y-101296677D01*
X111352084Y-101371391D01*
X111357391Y-101373671D01*
X111452543Y-101395202D01*
X111547627Y-101416718D01*
X111547630Y-101416718D01*
X111553263Y-101417993D01*
X111559034Y-101418220D01*
X111559036Y-101418220D01*
X111621038Y-101420656D01*
X111753932Y-101425877D01*
X111870808Y-101408931D01*
X111946957Y-101397890D01*
X111946961Y-101397889D01*
X111952679Y-101397060D01*
X111958151Y-101395202D01*
X111958153Y-101395202D01*
X112137377Y-101334363D01*
X112142845Y-101332507D01*
X112318063Y-101234380D01*
X112376193Y-101186035D01*
X112468034Y-101109652D01*
X112472466Y-101105966D01*
X112600880Y-100951563D01*
X112699007Y-100776345D01*
X112712697Y-100736016D01*
X112753534Y-100677940D01*
X112819286Y-100651161D01*
X112889079Y-100664182D01*
X112940752Y-100712868D01*
X112953716Y-100743905D01*
X112965228Y-100786868D01*
X112968977Y-100797168D01*
X113063877Y-101000684D01*
X113069360Y-101010179D01*
X113111581Y-101070477D01*
X113122058Y-101078852D01*
X113135504Y-101071785D01*
X113864479Y-100342811D01*
X113872092Y-100328868D01*
X113871961Y-100327034D01*
X113867710Y-100320420D01*
X113134780Y-99587491D01*
X113123010Y-99581064D01*
X113110996Y-99590358D01*
X113069360Y-99649821D01*
X113063877Y-99659316D01*
X112968977Y-99862832D01*
X112965230Y-99873126D01*
X112954848Y-99911875D01*
X112917897Y-99972498D01*
X112854037Y-100003520D01*
X112783542Y-99995092D01*
X112728795Y-99949890D01*
X112720135Y-99934993D01*
X112634726Y-99761801D01*
X112632171Y-99756620D01*
X112617847Y-99737437D01*
X112515466Y-99600333D01*
X112515465Y-99600332D01*
X112512013Y-99595709D01*
X112364543Y-99459389D01*
X112194701Y-99352226D01*
X112008173Y-99277809D01*
X111869888Y-99250303D01*
X111816875Y-99239758D01*
X111816873Y-99239758D01*
X111811208Y-99238631D01*
X111805433Y-99238555D01*
X111805429Y-99238555D01*
X111705018Y-99237241D01*
X111610400Y-99236002D01*
X111604703Y-99236981D01*
X111604702Y-99236981D01*
X111418174Y-99269032D01*
X111418173Y-99269032D01*
X111412477Y-99270011D01*
X111224065Y-99339520D01*
X111219104Y-99342472D01*
X111219103Y-99342472D01*
X111056444Y-99439244D01*
X111056441Y-99439246D01*
X111051476Y-99442200D01*
X110900488Y-99574613D01*
X110776159Y-99732323D01*
X110773470Y-99737434D01*
X110773468Y-99737437D01*
X110760650Y-99761801D01*
X110682652Y-99910050D01*
X110623099Y-100101842D01*
X110599495Y-100301274D01*
X109419000Y-100301274D01*
X109419000Y-99215558D01*
X113487648Y-99215558D01*
X113494715Y-99229004D01*
X114223689Y-99957979D01*
X114237632Y-99965592D01*
X114239466Y-99965461D01*
X114246080Y-99961210D01*
X114979009Y-99228280D01*
X114985436Y-99216510D01*
X114976141Y-99204495D01*
X114952795Y-99188148D01*
X114908466Y-99132691D01*
X114901157Y-99062072D01*
X114933187Y-98998712D01*
X114969633Y-98971783D01*
X114988103Y-98962735D01*
X114996944Y-98957465D01*
X115044247Y-98923723D01*
X115052648Y-98913023D01*
X115045660Y-98899870D01*
X114307812Y-98162022D01*
X114293868Y-98154408D01*
X114292035Y-98154539D01*
X114285420Y-98158790D01*
X113541737Y-98902473D01*
X113534977Y-98914853D01*
X113540259Y-98921908D01*
X113568362Y-98938331D01*
X113617086Y-98989970D01*
X113630156Y-99059753D01*
X113603424Y-99125524D01*
X113567790Y-99156238D01*
X113556321Y-99162859D01*
X113496023Y-99205081D01*
X113487648Y-99215558D01*
X109419000Y-99215558D01*
X109419000Y-97172425D01*
X109421421Y-97147844D01*
X109421555Y-97147170D01*
X109423976Y-97135000D01*
X109421605Y-97123082D01*
X109422633Y-97107406D01*
X109429817Y-97052837D01*
X109438330Y-97021064D01*
X109463696Y-96959826D01*
X109480142Y-96931341D01*
X109520494Y-96878753D01*
X109543753Y-96855494D01*
X109596341Y-96815142D01*
X109624826Y-96798696D01*
X109667528Y-96781008D01*
X109686066Y-96773330D01*
X109717837Y-96764817D01*
X109772406Y-96757633D01*
X109788082Y-96756605D01*
X109800000Y-96758976D01*
X109812171Y-96756555D01*
X109812172Y-96756555D01*
X109812635Y-96756463D01*
X109837357Y-96754042D01*
X110924999Y-96755258D01*
G37*
G04 #@! TD.AperFunction*
M02*
