G04 #@! TF.GenerationSoftware,KiCad,Pcbnew,(6.0.0-0)*
G04 #@! TF.CreationDate,2023-05-21T13:36:33-07:00*
G04 #@! TF.ProjectId,ItsyBitsy breadboard,49747379-4269-4747-9379-206272656164,0.0.0*
G04 #@! TF.SameCoordinates,Original*
G04 #@! TF.FileFunction,Profile,NP*
%FSLAX46Y46*%
G04 Gerber Fmt 4.6, Leading zero omitted, Abs format (unit mm)*
G04 Created by KiCad (PCBNEW (6.0.0-0)) date 2023-05-21 13:36:33*
%MOMM*%
%LPD*%
G01*
G04 APERTURE LIST*
G04 #@! TA.AperFunction,Profile*
%ADD10C,0.100000*%
G04 #@! TD*
G04 APERTURE END LIST*
D10*
X109800000Y-96500000D02*
X118745000Y-96509999D01*
X109800000Y-96500000D02*
G75*
G03*
X109165000Y-97135000I-1J-634999D01*
G01*
X109165000Y-118765000D02*
G75*
G03*
X109800000Y-119400000I634999J-1D01*
G01*
X109165000Y-118765000D02*
X109165000Y-97135000D01*
X109800000Y-119400000D02*
X118745000Y-119380000D01*
X130175001Y-95885001D02*
G75*
G03*
X129540001Y-95250001I-634999J1D01*
G01*
X130175001Y-95885001D02*
X130175001Y-120015001D01*
X129540001Y-120650001D02*
G75*
G03*
X130175001Y-120015001I1J634999D01*
G01*
X120015000Y-116840000D02*
G75*
G03*
X119380000Y-117475000I-1J-634999D01*
G01*
X125095000Y-98425000D02*
X125095001Y-95885000D01*
X125730001Y-95250000D02*
G75*
G03*
X125095001Y-95885000I-1J-634999D01*
G01*
X119380000Y-97144999D02*
G75*
G03*
X118745000Y-96509999I-634999J1D01*
G01*
X125729999Y-120650000D02*
X129540001Y-120650001D01*
X125095000Y-117475000D02*
G75*
G03*
X124460000Y-116840000I-634999J1D01*
G01*
X125094999Y-120015000D02*
G75*
G03*
X125729999Y-120650000I634999J-1D01*
G01*
X125094999Y-120015000D02*
X125095000Y-117475000D01*
X118745000Y-119380000D02*
G75*
G03*
X119380000Y-118745000I1J634999D01*
G01*
X124460000Y-99060000D02*
G75*
G03*
X125095000Y-98425000I1J634999D01*
G01*
X125730001Y-95250000D02*
X129540001Y-95250001D01*
X119380000Y-98425000D02*
G75*
G03*
X120015000Y-99060000I634999J-1D01*
G01*
X120015000Y-116840000D02*
X124460000Y-116840000D01*
X119380000Y-118745000D02*
X119380000Y-117475000D01*
X119380000Y-98425000D02*
X119380000Y-97144999D01*
X120015000Y-99060000D02*
X124460000Y-99060000D01*
M02*
